<svg xmlns="http://www.w3.org/2000/svg" xmlns:xlink="http://www.w3.org/1999/xlink" version="1.1" id="Layer_1" x="0px" y="0px" viewBox="0 0 486.4 486.4" style="enable-background:new 0 0 486.4 486.4;" xml:space="preserve">
<g>
	<circle style="fill: #dc4444;" cx="233.124" cy="218.925" r="22.732"/>
	<circle style="fill: #dc4444;" cx="253.276" cy="295.697" r="22.732"/>
	<circle style="fill: #69a6d0;" cx="265.272" cy="251.074" r="22.732"/>
	<circle style="fill: #69a6d0;" cx="220.888" cy="263.309" r="22.732"/>
	<path d="M297.504,251.074c0-8.61-3.353-16.704-9.441-22.792c-6.267-6.266-14.493-9.406-22.724-9.423   c-0.017-8.232-3.157-16.458-9.424-22.725c-12.567-12.567-33.016-12.567-45.583,0c-10.552,10.552-12.24,26.658-5.072,38.993   c-2.568,1.423-4.986,3.214-7.163,5.391c-12.567,12.568-12.567,33.016,0,45.583c6.284,6.284,14.538,9.425,22.792,9.425   c0.058,0,0.117-0.004,0.175-0.004c-0.045,8.312,3.093,16.639,9.421,22.967c6.284,6.284,14.538,9.425,22.792,9.425   s16.508-3.142,22.792-9.425c10.632-10.633,12.267-26.905,4.908-39.275c2.54-1.416,4.931-3.193,7.087-5.349   C294.151,267.777,297.504,259.683,297.504,251.074z M278.504,251.074c0,3.534-1.377,6.857-3.876,9.356   c-5.158,5.159-13.554,5.159-18.712,0c-2.499-2.499-3.876-5.822-3.876-9.356c0-3.535,1.377-6.857,3.876-9.356   c2.579-2.58,5.968-3.87,9.356-3.87s6.777,1.29,9.356,3.87C277.127,244.216,278.504,247.539,278.504,251.074z M223.768,209.569   c2.579-2.58,5.968-3.87,9.356-3.87s6.777,1.29,9.356,3.87c5.159,5.159,5.159,13.554,0,18.713c-5.157,5.16-13.553,5.16-18.712,0   C218.609,223.123,218.609,214.728,223.768,209.569z M211.532,272.665c-5.159-5.159-5.159-13.553,0-18.712   c2.579-2.58,5.968-3.87,9.356-3.87s6.777,1.29,9.356,3.87c5.159,5.159,5.159,13.553,0,18.712   C225.086,277.824,216.69,277.824,211.532,272.665z M262.632,305.053c-5.158,5.159-13.554,5.159-18.712,0   c-5.159-5.159-5.159-13.554,0-18.713c2.579-2.58,5.967-3.869,9.356-3.869c3.388,0,6.777,1.29,9.356,3.869   C267.791,291.5,267.791,299.894,262.632,305.053z" style="&#10;    fill: #59595a;&#10;"/>
	<g>
		<path d="M50.647,204.112c-3.024,0-5.998-1.441-7.839-4.122c-2.971-4.325-1.872-10.239,2.453-13.21    c6.002-4.122,12.618-8.094,19.663-11.803c4.643-2.446,10.388-0.662,12.832,3.98c2.445,4.643,0.662,10.388-3.98,12.832    c-6.391,3.365-12.367,6.95-17.76,10.654C54.374,203.57,52.5,204.112,50.647,204.112z" style="&#10;    fill: #9fa0a0;&#10;"/>
	</g>
	<g>
		<path d="M288.794,466.598c-1.294,0-2.609-0.266-3.868-0.828c-6.224-2.779-12.626-6.117-19.028-9.922    c-4.511-2.681-5.994-8.51-3.314-13.02c2.68-4.51,8.51-5.995,13.02-3.313c5.771,3.429,11.513,6.426,17.068,8.906    c4.791,2.139,6.94,7.757,4.801,12.548C295.896,464.502,292.427,466.598,288.794,466.598z" style="&#10;    fill: #9fa0a0;&#10;"/>
	</g>
	<g>
		<path d="M267.909,78.168c-3.188,0-6.3-1.604-8.095-4.515c-2.754-4.466-1.366-10.319,3.1-13.073    c7.18-4.427,14.359-8.271,21.338-11.426c4.783-2.162,10.409-0.038,12.57,4.744c2.161,4.781,0.037,10.409-4.743,12.569    c-6.244,2.822-12.701,6.282-19.193,10.285C271.332,77.711,269.61,78.168,267.909,78.168z" style="&#10;    fill: #9fa0a0;&#10;"/>
	</g>
	<circle style="fill: #E5C400;" cx="106.064" cy="438.425" r="29.114"/>
	<circle style="fill: #ABCB57;" cx="152.336" cy="47.975" r="29.114"/>
	<circle style="fill: #C8523B;" cx="446.836" cy="312.075" r="29.114"/>
	<path d="M486.4,257.311c0-33.426-26.239-64.255-73.885-86.808c-3.481-1.648-7.058-3.231-10.707-4.764   c0.497-3.927,0.914-7.817,1.228-11.655c4.292-52.538-9.288-90.677-38.236-107.39c-13.694-7.907-29.852-10.476-48.017-7.637   c-5.184,0.81-8.73,5.669-7.919,10.853c0.809,5.185,5.674,8.733,10.853,7.919c13.774-2.152,25.742-0.361,35.583,5.319   c21.908,12.649,32.406,45.23,28.799,89.389c-0.168,2.059-0.375,4.138-0.6,6.226c-22.398-7.717-47.222-13.476-73.533-17.093   c-23.708-30.533-49.772-56.083-76.245-74.394c-14.827-10.255-29.24-17.854-42.946-22.751c-0.774-8.709-4.482-17.203-11.133-23.854   c-15.057-15.055-39.554-15.053-54.609,0c-7.293,7.293-11.309,16.99-11.309,27.304c0,1.324,0.068,2.637,0.199,3.936   c-23.641,18.719-34.45,54.523-30.557,102.173c2.62,32.082,11.715,67.43,26.304,103.228c-10.023,24.594-17.447,48.972-21.963,72.228   c-1.921-0.849-3.825-1.709-5.692-2.593C41.968,307.99,19,282.609,19,257.311c0-10.611,3.878-21.157,11.527-31.347   c3.151-4.196,2.302-10.151-1.894-13.3c-4.196-3.151-10.15-2.302-13.301,1.894C5.158,228.11,0,242.494,0,257.311   c0,33.426,26.239,64.255,73.885,86.808c3.481,1.648,7.058,3.231,10.707,4.764c-0.497,3.927-0.914,7.817-1.228,11.655   c-1.373,16.802-0.908,32.123,1.293,45.749c-2.083,1.388-4.062,2.997-5.898,4.833c-15.055,15.056-15.055,39.553,0,54.608   c7.529,7.528,17.416,11.291,27.305,11.291c7.352,0,14.702-2.085,21.085-6.246c8.746,3.963,18.36,5.933,28.668,5.933   c23.145,0,49.78-9.909,77.904-29.36c26.473-18.31,52.538-43.861,76.245-74.394c26.311-3.617,51.135-9.376,73.533-17.093   c0.225,2.088,0.432,4.167,0.6,6.226c3.607,44.159-6.89,76.74-28.799,89.389c-8.809,5.085-19.362,7.059-31.357,5.862   c-5.231-0.515-9.875,3.29-10.395,8.511c-0.52,5.221,3.29,9.875,8.51,10.395c2.921,0.291,5.787,0.436,8.595,0.436   c12.613,0,24.067-2.931,34.147-8.75c28.948-16.713,42.527-54.852,38.236-107.39c-0.314-3.838-0.731-7.728-1.228-11.655   c3.649-1.533,7.227-3.117,10.707-4.764c2.7-1.278,5.322-2.586,7.883-3.916c7.413,6.971,16.922,10.467,26.437,10.467   c9.889,0,19.777-3.763,27.305-11.291c13.628-13.629,14.919-34.994,3.873-50.089C483.535,279.047,486.4,268.321,486.4,257.311z    M380.717,177.916c-3.194,17.631-8.198,36.025-14.873,54.736c-5.641-11.856-11.854-23.69-18.615-35.402   c-6.762-11.711-13.904-23.008-21.351-33.822C345.419,167.003,363.851,171.866,380.717,177.916z M356.158,257.311   c-7.228,16.869-15.724,33.83-25.383,50.561c-9.66,16.731-20.101,32.568-31.095,47.263c-18.223,2.175-37.16,3.298-56.479,3.298   c-19.298,0-38.215-1.121-56.42-3.291c-11.083-14.789-21.558-30.648-31.155-47.27c-9.66-16.731-18.155-33.692-25.383-50.561   c7.228-16.869,15.724-33.83,25.383-50.561c9.581-16.594,20.048-32.44,31.124-47.222c18.332-2.199,37.284-3.339,56.451-3.339   c19.319,0,38.256,1.123,56.479,3.298c10.995,14.694,21.436,30.532,31.095,47.263C340.434,223.481,348.929,240.442,356.158,257.311z    M133.334,43.344c1.998-8.776,10.001-15.105,19.003-15.102c7.844,0.002,15.103,5.023,18.121,12.223   c1.842,4.394,2.014,9.442,0.272,13.895c-1.381,3.528-2.698,5.846-6.38,9.026c-6.565,5.089-15.95,5.401-22.861,0.806   C134.71,59.684,131.537,51.24,133.334,43.344z M102.301,152.537c-3.017-36.932,3.839-65.756,18.977-81.604   c1.132,1.525,2.385,2.978,3.753,4.346c7.529,7.528,17.416,11.291,27.304,11.291c9.889,0,19.777-3.763,27.305-11.291   c3.439-3.439,6.083-7.375,7.951-11.574c11.224,4.333,23.103,10.748,35.32,19.197c20.636,14.273,41.067,33.296,60.254,55.867   c-13.088-1.042-26.443-1.58-39.967-1.58c-13.437,0-26.784,0.541-39.912,1.593c8.019-9.43,16.27-18.272,24.669-26.403   c3.77-3.65,3.868-9.664,0.218-13.434c-3.65-3.769-9.663-3.867-13.433-0.218c-13.228,12.805-26.086,27.273-38.285,42.974   c-20.115,2.771-39.46,6.785-57.496,11.996c-5.04,1.457-7.946,6.723-6.489,11.764c1.456,5.04,6.72,7.947,11.764,6.489   c11.563-3.342,23.706-6.164,36.263-8.464c-7.475,10.843-14.614,22.132-21.33,33.763c-6.762,11.711-12.974,23.546-18.615,35.402   C110.602,204.75,104.344,177.544,102.301,152.537z M120.556,281.97c5.641,11.856,11.854,23.69,18.615,35.402   c6.732,11.66,13.888,22.967,21.376,33.826c-19.551-3.575-37.991-8.44-54.865-14.492   C108.877,319.075,113.881,300.681,120.556,281.97z M116.337,455.129c-7.63,4.673-17.813,3.494-24.142-2.835   c-5.784-5.783-7.374-14.812-3.879-22.219c3.543-7.51,11.583-11.987,19.817-11.125c8.074,0.845,14.975,6.779,16.955,14.665   C127.146,441.821,123.56,450.705,116.337,455.129z M222.912,431.72c-31.471,21.767-60.716,30.093-82.221,23.813   c2.602-5.254,3.986-11.073,3.986-17.108c0-10.314-4.016-20.011-11.309-27.304c-8.31-8.309-19.494-12.022-30.38-11.159   c-1.561-11.315-1.818-24.025-0.687-37.876c0.168-2.059,0.375-4.138,0.6-6.226c22.412,7.722,47.252,13.483,73.581,17.1   c12.579,16.187,25.861,31.057,39.533,44.162c3.787,3.629,9.802,3.504,13.433-0.285c3.63-3.787,3.502-9.802-0.285-13.432   c-8.811-8.445-17.457-17.677-25.851-27.545c13.063,1.038,26.391,1.574,39.887,1.574c13.523,0,26.879-0.537,39.967-1.58   C263.98,398.424,243.548,417.448,222.912,431.72z M325.878,351.194c7.447-10.813,14.589-22.11,21.351-33.822   c6.762-11.711,12.974-23.546,18.615-35.402c6.675,18.711,11.679,37.104,14.873,54.736   C363.851,342.756,345.419,347.619,325.878,351.194z M454.018,330.321c-7.217,2.82-15.712,1.041-21.159-4.488   c-5.723-5.809-7.254-14.863-3.726-22.225c3.58-7.472,11.756-11.99,19.987-10.999c9.758,1.174,17.33,9.612,17.33,19.466   C466.45,320.046,461.451,327.417,454.018,330.321z M462.836,276.937c-14.235-6.463-31.615-3.854-43.304,7.834   c-7.293,7.293-11.309,16.99-11.309,27.304c0,4.152,0.661,8.199,1.915,12.034c-1.88,0.959-3.788,1.908-5.751,2.837   c-1.867,0.884-3.771,1.744-5.692,2.593c-4.516-23.256-11.94-47.634-21.963-72.228c10.023-24.594,17.447-48.972,21.963-72.228   c1.921,0.849,3.825,1.709,5.692,2.593c40.046,18.956,63.014,44.337,63.014,69.635C467.4,263.886,465.835,270.465,462.836,276.937z" style="&#10;    fill: #59595a;&#10;"/>
</g>
</svg>